<svg width="211" height="108" viewBox="0 0 211 108" fill="none" xmlns="http://www.w3.org/2000/svg">
<path d="M29.3781 33.6425C29.3781 35.6177 29.3781 37.6566 29.3781 39.6319C29.3781 44.092 28.8046 48.4885 30.6527 52.6938C32.2458 56.3257 35.1773 58.8743 38.6823 60.7221C38.8734 60.8496 39.2558 61.0407 39.6382 61.2956C39.6382 59.2566 39.6382 57.2814 39.6382 55.2425C39.6382 50.846 40.0843 46.5133 38.3636 42.308C36.7705 38.4212 33.7116 35.3628 29.8242 33.7699C29.8242 33.8336 29.3781 33.6425 29.3781 33.6425Z" fill="#72A040"/>
<path d="M60.4132 34.2796C58.6925 35.2354 57.0356 36.2549 55.315 37.2106C51.5551 39.377 47.5403 41.0973 44.8638 44.7292C42.5696 47.8513 41.8686 51.6106 41.9961 55.4336C41.9961 55.6248 41.9961 56.0708 41.9961 56.5168C43.7167 55.561 45.4373 54.5416 47.0942 53.5858C50.8541 51.4195 54.7415 49.6991 57.418 46.1947C59.9033 42.9451 61.0504 38.8672 60.4769 34.7894C60.4769 34.7256 60.4132 34.3433 60.4132 34.2796Z" fill="#97C73F"/>
<path d="M60.3494 73.9752C60.3494 73.9752 60.4769 72.6372 60.5406 72.5734C60.6043 71.3628 60.4769 70.1522 60.1583 68.9416C58.9474 64.354 55.8248 61.5504 51.7463 59.4478C48.7511 57.9186 45.756 56.3257 42.7608 54.7965C42.6971 54.7965 41.9961 54.4779 41.9961 54.4142C41.7412 58.5557 43.0794 63.0159 45.9471 66.0743C48.2413 68.4956 51.81 69.7062 54.7415 71.1717C56.5896 72.1274 58.4376 73.0832 60.3494 73.9752Z" fill="#97C73F"/>
<path d="M80.0411 55.3705H75.8988V35.6183H80.0411V43.8378C82.3352 43.8378 84.247 43.0094 85.8402 41.4165C87.4334 39.8236 88.2618 37.8484 88.2618 35.6183H89.3452C89.3452 36.8926 89.0903 38.1032 88.5805 39.2501C88.1344 40.3333 87.4334 41.3528 86.6049 42.1811C85.7127 43.0731 84.7568 43.7103 83.6098 44.2201C83.4823 44.2838 83.2911 44.3475 83.1637 44.4112C83.3549 44.4749 83.4823 44.5386 83.6098 44.6024C84.7568 45.0484 85.7127 45.7493 86.6049 46.6413C87.4971 47.5333 88.1344 48.4891 88.5805 49.5723C89.0903 50.7192 89.3452 51.9298 89.3452 53.2041V55.4342H88.2618V53.2041C88.2618 50.9103 87.4334 48.9988 85.8402 47.4059C84.247 45.813 82.2715 44.9847 80.0411 44.9847V55.3705Z" fill="#72A040"/>
<path d="M93.2325 55.3699H92.1492V47.7239C92.1492 46.0673 92.4678 44.5381 93.1051 43.0089C93.7423 41.5434 94.5708 40.269 95.7179 39.1858C96.865 38.0389 98.1395 37.2106 99.5415 36.5735C101.007 35.9363 102.6 35.6177 104.257 35.6177H104.831V55.3699H100.689V44.9841H93.6149C93.36 45.8761 93.2962 46.7681 93.2962 47.7239V55.3699H93.2325ZM100.625 37.3381C97.3748 38.485 95.1443 40.6513 93.9335 43.9009H100.625V37.3381Z" fill="#72A040"/>
<path d="M122.738 38.5487C124.459 40.4602 125.351 42.8177 125.351 45.4938C125.351 48.2336 124.459 50.5274 122.738 52.4389C121.91 53.331 120.954 54.0956 119.934 54.5416C118.851 55.0513 117.64 55.3062 116.429 55.3062C115.218 55.3062 114.071 55.0513 112.924 54.5416C111.841 54.0319 110.885 53.331 110.056 52.4389C108.336 50.5274 107.444 48.1699 107.444 45.4938C107.444 42.754 108.336 40.4602 110.056 38.5487C110.885 37.6566 111.841 36.892 112.924 36.446C114.008 35.9363 115.218 35.6814 116.429 35.6814C117.64 35.6814 118.787 35.9363 119.934 36.446C120.954 36.9558 121.91 37.6566 122.738 38.5487ZM116.365 54.2867C118.532 54.2867 120.38 53.4584 121.91 51.7381C123.439 50.0177 124.204 47.9788 124.204 45.5575C124.204 43.1363 123.439 41.0974 121.91 39.377C120.38 37.6566 118.532 36.7646 116.365 36.7646C114.963 36.7646 113.689 37.1469 112.478 37.9752V53.2035C113.689 53.9044 115.027 54.2867 116.365 54.2867Z" fill="#72A040"/>
<path d="M133.699 47.0867C132.233 46.8956 131.023 46.2584 129.939 45.2389C128.665 43.9646 128.027 42.4354 128.027 40.715V35.6177H132.17V45.4938C132.934 45.8761 133.699 46.0035 134.528 46.0035C135.993 46.0035 137.268 45.4938 138.288 44.4106C139.307 43.3912 139.881 42.1168 139.881 40.6513V35.554H140.964V40.6513C140.964 42.4354 140.327 43.9646 139.052 45.1752C137.841 46.3858 136.439 46.9593 134.783 47.0867V55.3062H133.699V47.0867Z" fill="#72A040"/>
<path d="M156.513 35.6177V36.7009H147.847V43.8372H154.857V44.9204H147.847V54.223H156.513V55.3062H143.704V35.554H156.513V35.6177Z" fill="#72A040"/>
<path d="M163.396 55.3699H159.254V35.6177C160.974 35.6177 162.695 35.9363 164.288 36.6372C165.818 37.2743 167.22 38.2301 168.367 39.377C169.514 40.5239 170.406 41.7982 171.043 43.2637V35.6177H172.126V55.3699H171.043V48.5522C171.043 46.0673 170.342 43.7735 168.876 41.7345C167.474 39.7593 165.626 38.2938 163.332 37.4655V55.3699H163.396Z" fill="#72A040"/>
<path d="M174.931 35.6177H179.073V55.3699H174.931V35.6177Z" fill="#72A040"/>
<path d="M77.1096 71.4908H80.296V72.6377H75.9625V65.5015H80.2322V66.6484H77.1096V68.4962H79.9773V69.5793H77.1096V71.4908Z" fill="#97C73F"/>
<path d="M89.2814 72.6372L86.7961 65.5009H88.0706L89.9824 71.2354L91.8942 65.5009H93.1688L90.6834 72.6372H89.2814Z" fill="#97C73F"/>
<path d="M101.198 71.4903H104.385V72.6372H100.051V65.5009H104.321V66.6478H101.198V68.4956H104.066V69.5788H101.198V71.4903Z" fill="#97C73F"/>
<path d="M115.664 72.6372L114.135 70.0248H112.797V72.6372H111.65V65.5009H114.517C115.155 65.5009 115.728 65.7558 116.174 66.2018C116.62 66.6478 116.811 67.2212 116.811 67.8584C116.811 68.3044 116.684 68.7504 116.429 69.1327C116.174 69.515 115.856 69.7699 115.409 69.9611L117.003 72.7646H115.664V72.6372ZM112.797 66.5841V68.9416H114.454C114.772 68.9416 115.027 68.8142 115.218 68.623C115.409 68.3681 115.537 68.1133 115.537 67.7947C115.537 67.4761 115.409 67.1575 115.218 66.9664C115.027 66.7115 114.708 66.6478 114.454 66.6478H112.797V66.5841Z" fill="#97C73F"/>
<path d="M130.895 68.9416V69.4513C130.895 70.4071 130.577 71.2354 129.939 71.8726C129.302 72.5097 128.474 72.8283 127.39 72.8283C126.307 72.8283 125.351 72.446 124.65 71.7451C123.949 71.0442 123.567 70.1522 123.567 69.1327C123.567 68.1133 123.949 67.2212 124.65 66.5204C125.351 65.8195 126.243 65.4372 127.326 65.4372C127.964 65.4372 128.601 65.5646 129.175 65.8832C129.748 66.2018 130.13 66.5841 130.449 67.0938L129.429 67.6673C129.238 67.3487 128.983 67.0301 128.601 66.8389C128.219 66.6478 127.836 66.5204 127.326 66.5204C126.562 66.5204 125.988 66.7752 125.478 67.285C124.969 67.7947 124.777 68.3681 124.777 69.1327C124.777 69.8973 125.032 70.4708 125.478 70.9805C125.988 71.4903 126.625 71.6814 127.39 71.6814C128.027 71.6814 128.537 71.554 128.92 71.2354C129.302 70.9168 129.557 70.5345 129.684 70.0248H127.326V68.9416H130.895Z" fill="#97C73F"/>
<path d="M142.175 72.6372L140.645 70.0248H139.243V72.6372H138.096V65.5009H140.964C141.601 65.5009 142.175 65.7558 142.621 66.2018C143.067 66.6478 143.258 67.2212 143.258 67.8584C143.258 68.3044 143.131 68.7504 142.876 69.1327C142.621 69.515 142.302 69.7699 141.856 69.9611L143.449 72.7646H142.175V72.6372ZM139.243 66.5841V68.9416H140.9C141.219 68.9416 141.474 68.8142 141.729 68.623C141.92 68.3681 142.047 68.1133 142.047 67.7947C142.047 67.4761 141.92 67.1575 141.729 66.9664C141.538 66.7115 141.219 66.6478 140.9 66.6478H139.243V66.5841Z" fill="#97C73F"/>
<path d="M151.67 71.4903H154.857V72.6372H150.523V65.5009H154.793V66.6478H151.67V68.4956H154.538V69.5788H151.67V71.4903Z" fill="#97C73F"/>
<path d="M163.205 71.4903H166.391V72.6372H162.058V65.5009H166.327V66.6478H163.205V68.4956H166.072V69.5788H163.205V71.4903Z" fill="#97C73F"/>
<path d="M177.862 65.4372H179.009V72.6372H178.117L174.739 67.7947V72.6372H173.592V65.5009H174.484L177.862 70.4071V65.4372Z" fill="#97C73F"/>
</svg>
