<?xml version="1.0" encoding="utf-8"?>
<svg viewBox="22.35 28.471 44.702 49.728" fill="none" xmlns="http://www.w3.org/2000/svg">
  <path d="M29.3781 33.6425C29.3781 35.6177 29.3781 37.6566 29.3781 39.6319C29.3781 44.092 28.8046 48.4885 30.6527 52.6938C32.2458 56.3257 35.1773 58.8743 38.6823 60.7221C38.8734 60.8496 39.2558 61.0407 39.6382 61.2956C39.6382 59.2566 39.6382 57.2814 39.6382 55.2425C39.6382 50.846 40.0843 46.5133 38.3636 42.308C36.7705 38.4212 33.7116 35.3628 29.8242 33.7699C29.8242 33.8336 29.3781 33.6425 29.3781 33.6425Z" fill="#72A040"/>
  <path d="M60.4132 34.2796C58.6925 35.2354 57.0356 36.2549 55.315 37.2106C51.5551 39.377 47.5403 41.0973 44.8638 44.7292C42.5696 47.8513 41.8686 51.6106 41.9961 55.4336C41.9961 55.6248 41.9961 56.0708 41.9961 56.5168C43.7167 55.561 45.4373 54.5416 47.0942 53.5858C50.8541 51.4195 54.7415 49.6991 57.418 46.1947C59.9033 42.9451 61.0504 38.8672 60.4769 34.7894C60.4769 34.7256 60.4132 34.3433 60.4132 34.2796Z" fill="#97C73F"/>
  <path d="M60.3494 73.9752C60.3494 73.9752 60.4769 72.6372 60.5406 72.5734C60.6043 71.3628 60.4769 70.1522 60.1583 68.9416C58.9474 64.354 55.8248 61.5504 51.7463 59.4478C48.7511 57.9186 45.756 56.3257 42.7608 54.7965C42.6971 54.7965 41.9961 54.4779 41.9961 54.4142C41.7412 58.5557 43.0794 63.0159 45.9471 66.0743C48.2413 68.4956 51.81 69.7062 54.7415 71.1717C56.5896 72.1274 58.4376 73.0832 60.3494 73.9752Z" fill="#97C73F"/>
</svg>